<svg id="Layer_1" data-name="Layer 1" xmlns="http://www.w3.org/2000/svg" viewBox="0 0 512 512"><defs><style>.cls-1{fill:#141f38;}</style></defs><title>speech-bubble-4-glyph</title><path class="cls-1" d="M169.08,348.62a146.08,146.08,0,0,0,7.8,47.1,231,231,0,0,1-84.77-30.2L78.2,357.14l-14.3,7.71L3.44,397.45l-.58.31-.56.34a5.31,5.31,0,0,1-.79.39A2.81,2.81,0,0,1,0,397a3,3,0,0,1,.39-.85l.34-.56L1,395l30.82-57.16,8.29-15.36-9.92-14.36C10.45,279.56,0,246.74,0,213.25,0,111.12,95.88,28,213.73,28c111.72,0,203.68,74.68,212.95,169.47a206.65,206.65,0,0,0-71.88-12.73C252.23,184.76,169.08,258.12,169.08,348.62Zm342.92,0c0,24.31-7.6,48.17-22,69L480.09,432l8.29,15.37,15.24,28.27L472.82,459l-14.3-7.71-13.92,8.38C418.16,475.57,387.1,484,354.79,484c-86.69,0-157.21-60.72-157.21-135.36s70.52-135.36,157.21-135.36S512,274,512,348.62Zm-185.23,7.12A14.25,14.25,0,1,0,312.52,370,14.25,14.25,0,0,0,326.77,355.74Zm42.75,0A14.25,14.25,0,1,0,355.27,370,14.25,14.25,0,0,0,369.51,355.74Zm42.75,0A14.25,14.25,0,1,0,398,370,14.25,14.25,0,0,0,412.26,355.74Z"/></svg>